<svg xmlns="http://www.w3.org/2000/svg" xmlns:xlink="http://www.w3.org/1999/xlink" viewBox="0 0 580.56 102.7"><defs><style>.cls-1{fill:none;}.cls-2{clip-path:url(#clip-path);}.cls-3{fill:#fff;}.cls-4{fill:#e10600;}</style><clipPath id="clip-path"><rect class="cls-1" width="580.61" height="102.8"/></clipPath></defs><g id="Layer_2" data-name="Layer 2"><g id="Logo"><g class="cls-2"><path class="cls-3" d="M15.68,34.5v34h9.6c6.37,0,10.78-1.38,13.43-4s3.92-7.2,3.92-13.41c0-6-1.18-10.25-3.63-12.71-2.45-2.66-6.56-3.84-12.54-3.84ZM0,21.58H30.18c9.12,0,16.17,2.67,21.27,8.09s7.64,12.91,7.64,22.47A34.42,34.42,0,0,1,57.52,63a28.27,28.27,0,0,1-4.8,9A22.88,22.88,0,0,1,43.51,79c-3.63,1.38-8.33,2.07-14.31,2.07H15.68V102.7H0Z"/><path class="cls-3" d="M90.64,69.19h19.6V56.87H91.82c-3.63,0-6.17.49-7.55,1.48s-2,2.76-2,5.22c0,2.07.58,3.55,1.66,4.43S87.21,69.19,90.64,69.19ZM69.87,21.58h32c8.14,0,14.21,1.88,18.33,5.62s6.17,9.27,6.17,16.66V81.21H84.27c-5.88,0-10.48-1.48-13.62-4.43S66,69.58,66,64.06c0-6.8,1.76-11.63,5.39-14.58S81,45,89.57,45h20.57V43.56c0-3.55-1.07-6-3.13-7.49s-5.69-2.17-11.07-2.17H69.87Z"/><path class="cls-3" d="M139.15,68.79h33c2.94,0,5.1-.49,6.37-1.38A4.84,4.84,0,0,0,180.6,63a4.87,4.87,0,0,0-2.06-4.44c-1.37-1-3.52-1.48-6.37-1.48H158.65c-8,0-13.42-1.28-16.27-3.74s-4.21-6.9-4.21-13.11c0-6.4,1.67-11.14,5.1-14.19S152,21.49,159,21.49h33.61V33.9H165q-6.77,0-8.82,1.19c-1.37.78-2.06,2.16-2.06,4.23a4.55,4.55,0,0,0,1.77,4c1.17.88,3.13,1.28,5.68,1.28H175.8c6.47,0,11.46,1.57,14.8,4.63s5.09,7.39,5.09,13.11c0,5.52-1.57,10-4.6,13.5a14.79,14.79,0,0,1-11.67,5.22H139.15Z"/><path class="cls-3" d="M206,68.79h33c2.94,0,5.1-.49,6.37-1.38A4.84,4.84,0,0,0,247.43,63a4.87,4.87,0,0,0-2.06-4.44c-1.37-1-3.52-1.48-6.37-1.48H225.48c-8,0-13.42-1.28-16.27-3.74S205,46.42,205,40.21c0-6.4,1.67-11.14,5.1-14.19s8.72-4.53,15.77-4.53h33.62V33.9H231.85q-6.76,0-8.82,1.19c-1.37.78-2.06,2.16-2.06,4.23a4.55,4.55,0,0,0,1.77,4c1.17.88,3.13,1.28,5.68,1.28h14.21c6.47,0,11.47,1.57,14.8,4.63s5.09,7.39,5.09,13.11c0,5.52-1.56,10-4.6,13.5a14.79,14.79,0,0,1-11.66,5.22H205.79V68.79Z"/><path class="cls-3" d="M289.47,0V21.58H302.9c6,0,10.68.69,14.3,2.17a21.16,21.16,0,0,1,9.21,7,28.78,28.78,0,0,1,4.81,9.07,34.72,34.72,0,0,1,1.56,10.84q0,14.34-7.64,22.47c-5.09,5.42-12.15,8.08-21.26,8.08H273.69V0ZM299,34.5h-9.61v34h10.78c6,0,10.19-1.28,12.55-3.75s3.62-6.8,3.62-12.91-1.37-10.64-4-13.3S305.25,34.5,299,34.5Z"/><path class="cls-3" d="M354.93,51.45c0,5.71,1.27,10,3.92,13.3s6.27,4.73,11.07,4.73,8.33-1.57,11.08-4.73,4-7.59,4-13.3-1.38-10.06-4-13.21-6.27-4.73-11.08-4.73a13.85,13.85,0,0,0-11.07,4.73C356.2,41.39,354.93,45.83,354.93,51.45Zm46.45,0q0,14-8.52,22.47c-5.69,5.52-13.24,8.38-22.84,8.38s-17.25-2.76-22.93-8.38-8.52-13-8.52-22.37,2.84-16.86,8.52-22.48S360.42,20.6,370,20.6s17.15,2.86,22.84,8.47S401.38,42.08,401.38,51.45Z"/><path class="cls-3" d="M427.05,81.21H410.79V0h16.26Z"/><path class="cls-3" d="M434.6,21.58h11.07V0h15.68V21.58h16.56V33.51H461.35V57.56c0,4.43.79,7.49,2.25,9.26s4.12,2.56,7.84,2.56h6.47V81.31h-14.4c-5.78,0-10.2-1.58-13.33-4.83s-4.6-7.88-4.6-13.9V33.51H434.5V21.58Z"/><path class="cls-4" d="M578.06,40.21,543,7.19a8.12,8.12,0,0,0-11,0L510,28a19.54,19.54,0,0,1,12,13H551.7a2.75,2.75,0,0,1,2.75,2.76v4.53a2.75,2.75,0,0,1-2.75,2.76h-3.43v6.41a2.74,2.74,0,0,1-2.74,2.76H538a2.74,2.74,0,0,1-2.74-2.76V51.05H522A19.2,19.2,0,0,1,510,64.16L532.1,85a8.12,8.12,0,0,0,11,0l35-33A8.14,8.14,0,0,0,578.06,40.21Z"/><path class="cls-4" d="M503.49,37a9.79,9.79,0,0,0-4.12,1,9,9,0,1,0,13,8.09A8.88,8.88,0,0,0,503.49,37Z"/></g></g></g></svg>